<svg width="187" height="30" viewBox="0 0 187 30" fill="none" xmlns="http://www.w3.org/2000/svg">
<path d="M0 1C0 0.447716 0.45181 0 1.00915 0H44.4024C44.9598 0 45.4116 0.447715 45.4116 1V29C45.4116 29.5523 44.9598 30 44.4024 30H1.00915C0.45181 30 0 29.5523 0 29V1Z" fill="#AACD85"/>
<path d="M51.4664 0.25C51.4664 0.111929 51.5794 0 51.7187 0C51.8581 0 51.971 0.111929 51.971 0.25V29.75C51.971 29.8881 51.8581 30 51.7187 30C51.5794 30 51.4664 29.8881 51.4664 29.75V0.25Z" fill="white"/>
<path d="M21.8162 7.568H10.5214V13.376H19.3741V16.159H10.5214V24.75H7.255V4.785H21.8162V7.568Z" fill="white"/>
<path d="M32.7548 4.785C34.1997 4.785 35.4411 5.03708 36.479 5.54125C37.5373 6.04542 38.3615 6.76133 38.9517 7.689C39.5419 8.61667 39.837 9.73592 39.837 11.0467C39.837 12.3374 39.5419 13.4567 38.9517 14.4045C38.3615 15.3322 37.5373 16.0481 36.479 16.5522C35.4411 17.0564 34.1997 17.3085 32.7548 17.3085H28.2674V24.75H25.001V4.785H32.7548ZM32.2358 14.5255C33.6808 14.5255 34.739 14.2331 35.4106 13.6483C36.1025 13.0433 36.4485 12.1761 36.4485 11.0467C36.4485 9.89725 36.1025 9.03008 35.4106 8.44525C34.739 7.84025 33.6808 7.53775 32.2358 7.53775H28.2674V14.5255H32.2358Z" fill="white"/>
<path d="M63.5207 17.85C64.2877 17.85 64.9436 17.98 65.4885 18.24C66.0335 18.49 66.4523 18.855 66.7449 19.335C67.0477 19.805 67.199 20.375 67.199 21.045C67.199 21.715 67.0477 22.29 66.7449 22.77C66.4523 23.24 66.0335 23.605 65.4885 23.865C64.9436 24.115 64.2877 24.24 63.5207 24.24H61.4166V27.75H59.3277V17.85H63.5207ZM63.2028 22.605C63.8285 22.605 64.2977 22.475 64.6106 22.215C64.9234 21.945 65.0798 21.555 65.0798 21.045C65.0798 20.525 64.9234 20.135 64.6106 19.875C64.2977 19.615 63.8285 19.485 63.2028 19.485H61.4166V22.605H63.2028Z" fill="white"/>
<path d="M78.8771 17.7C79.8661 17.7 80.7188 17.905 81.4353 18.315C82.1518 18.725 82.7018 19.31 83.0853 20.07C83.4788 20.83 83.6756 21.74 83.6756 22.8C83.6756 23.86 83.4788 24.77 83.0853 25.53C82.7018 26.29 82.1518 26.875 81.4353 27.285C80.7188 27.695 79.8661 27.9 78.8771 27.9C77.8882 27.9 77.0304 27.695 76.3038 27.285C75.5873 26.875 75.0323 26.29 74.6387 25.53C74.2552 24.77 74.0635 23.86 74.0635 22.8C74.0635 21.74 74.2552 20.83 74.6387 20.07C75.0323 19.31 75.5873 18.725 76.3038 18.315C77.0304 17.905 77.8882 17.7 78.8771 17.7ZM78.8771 19.395C78.3221 19.395 77.8428 19.525 77.4391 19.785C77.0455 20.045 76.7428 20.43 76.5309 20.94C76.329 21.45 76.2281 22.07 76.2281 22.8C76.2281 23.53 76.329 24.15 76.5309 24.66C76.7428 25.17 77.0455 25.555 77.4391 25.815C77.8428 26.075 78.3221 26.205 78.8771 26.205C79.4322 26.205 79.9065 26.075 80.3 25.815C80.6936 25.555 80.9913 25.17 81.1931 24.66C81.4051 24.15 81.511 23.53 81.511 22.8C81.511 22.07 81.4051 21.45 81.1931 20.94C80.9913 20.43 80.6936 20.045 80.3 19.785C79.9065 19.525 79.4322 19.395 78.8771 19.395Z" fill="white"/>
<path d="M95.6372 17.85C96.7674 17.85 97.6555 18.12 98.3014 18.66C98.9472 19.2 99.2701 19.925 99.2701 20.835C99.2701 21.805 98.9472 22.55 98.3014 23.07C97.6555 23.58 96.7725 23.835 95.6523 23.835L95.4404 23.955H93.2909V27.75H91.2323V17.85H95.6372ZM95.395 22.38C95.9803 22.38 96.4142 22.265 96.6968 22.035C96.9895 21.795 97.1358 21.43 97.1358 20.94C97.1358 20.45 96.9895 20.09 96.6968 19.86C96.4142 19.62 95.9803 19.5 95.395 19.5H93.2909V22.38H95.395ZM96.6211 22.815L99.8605 27.75H97.5142L94.8349 23.415L96.6211 22.815Z" fill="white"/>
<path d="M114.694 17.85V19.515H111.349V27.75H109.26V19.515H105.9V17.85H114.694Z" fill="white"/>
<path d="M129.329 19.515H123.94V22.02H128.193V23.7H123.94V27.75H121.851V17.85H129.329V19.515Z" fill="white"/>
<path d="M140.779 17.7C141.768 17.7 142.621 17.905 143.338 18.315C144.054 18.725 144.604 19.31 144.988 20.07C145.381 20.83 145.578 21.74 145.578 22.8C145.578 23.86 145.381 24.77 144.988 25.53C144.604 26.29 144.054 26.875 143.338 27.285C142.621 27.695 141.768 27.9 140.779 27.9C139.79 27.9 138.933 27.695 138.206 27.285C137.49 26.875 136.935 26.29 136.541 25.53C136.158 24.77 135.966 23.86 135.966 22.8C135.966 21.74 136.158 20.83 136.541 20.07C136.935 19.31 137.49 18.725 138.206 18.315C138.933 17.905 139.79 17.7 140.779 17.7ZM140.779 19.395C140.224 19.395 139.745 19.525 139.341 19.785C138.948 20.045 138.645 20.43 138.433 20.94C138.231 21.45 138.13 22.07 138.13 22.8C138.13 23.53 138.231 24.15 138.433 24.66C138.645 25.17 138.948 25.555 139.341 25.815C139.745 26.075 140.224 26.205 140.779 26.205C141.334 26.205 141.809 26.075 142.202 25.815C142.596 25.555 142.894 25.17 143.095 24.66C143.307 24.15 143.413 23.53 143.413 22.8C143.413 22.07 143.307 21.45 143.095 20.94C142.894 20.43 142.596 20.045 142.202 19.785C141.809 19.525 141.334 19.395 140.779 19.395Z" fill="white"/>
<path d="M155.223 26.085H160.491V27.75H153.135V17.85H155.223V26.085Z" fill="white"/>
<path d="M169.764 17.85V27.75H167.675V17.85H169.764Z" fill="white"/>
<path d="M182.125 17.7C183.114 17.7 183.966 17.905 184.683 18.315C185.399 18.725 185.949 19.31 186.333 20.07C186.726 20.83 186.923 21.74 186.923 22.8C186.923 23.86 186.726 24.77 186.333 25.53C185.949 26.29 185.399 26.875 184.683 27.285C183.966 27.695 183.114 27.9 182.125 27.9C181.136 27.9 180.278 27.695 179.551 27.285C178.835 26.875 178.28 26.29 177.886 25.53C177.503 24.77 177.311 23.86 177.311 22.8C177.311 21.74 177.503 20.83 177.886 20.07C178.28 19.31 178.835 18.725 179.551 18.315C180.278 17.905 181.136 17.7 182.125 17.7ZM182.125 19.395C181.57 19.395 181.09 19.525 180.687 19.785C180.293 20.045 179.99 20.43 179.778 20.94C179.577 21.45 179.476 22.07 179.476 22.8C179.476 23.53 179.577 24.15 179.778 24.66C179.99 25.17 180.293 25.555 180.687 25.815C181.09 26.075 181.57 26.205 182.125 26.205C182.68 26.205 183.154 26.075 183.548 25.815C183.941 25.555 184.239 25.17 184.441 24.66C184.652 24.15 184.758 23.53 184.758 22.8C184.758 22.07 184.652 21.45 184.441 20.94C184.239 20.43 183.941 20.045 183.548 19.785C183.154 19.525 182.68 19.395 182.125 19.395Z" fill="white"/>
<path d="M66.8055 4.515H61.4166V7.02H65.6702V8.7H61.4166V12.75H59.3277V2.85H66.8055V4.515Z" fill="white"/>
<path d="M80.0703 2.85V12.75H77.9813V2.85H80.0703Z" fill="white"/>
<path d="M95.5491 2.85C96.6793 2.85 97.5674 3.12 98.2132 3.66C98.8591 4.2 99.182 4.925 99.182 5.835C99.182 6.805 98.8591 7.55 98.2132 8.07C97.5674 8.58 96.6844 8.835 95.5642 8.835L95.3523 8.955H93.2028V12.75H91.1442V2.85H95.5491ZM95.3069 7.38C95.8922 7.38 96.3261 7.265 96.6087 7.035C96.9014 6.795 97.0477 6.43 97.0477 5.94C97.0477 5.45 96.9014 5.09 96.6087 4.86C96.3261 4.62 95.8922 4.5 95.3069 4.5H93.2028V7.38H95.3069ZM96.533 7.815L99.7724 12.75H97.4261L94.7468 8.415L96.533 7.815Z" fill="white"/>
<path d="M110.53 2.7C111.438 2.7 112.236 2.855 112.922 3.165C113.608 3.475 114.193 3.935 114.678 4.545L113.512 5.88C113.098 5.36 112.644 4.98 112.15 4.74C111.665 4.49 111.1 4.365 110.455 4.365C110.031 4.365 109.677 4.42 109.395 4.53C109.122 4.64 108.921 4.785 108.789 4.965C108.668 5.145 108.608 5.345 108.608 5.565C108.608 5.835 108.714 6.065 108.926 6.255C109.138 6.435 109.501 6.585 110.016 6.705L111.877 7.125C112.866 7.345 113.573 7.675 113.997 8.115C114.431 8.545 114.648 9.105 114.648 9.795C114.648 10.445 114.476 11.005 114.133 11.475C113.79 11.935 113.31 12.29 112.695 12.54C112.079 12.78 111.373 12.9 110.576 12.9C109.879 12.9 109.238 12.82 108.653 12.66C108.078 12.49 107.563 12.26 107.109 11.97C106.655 11.68 106.277 11.345 105.974 10.965L107.155 9.57C107.387 9.89 107.674 10.175 108.017 10.425C108.361 10.675 108.749 10.875 109.183 11.025C109.627 11.165 110.091 11.235 110.576 11.235C110.989 11.235 111.338 11.19 111.62 11.1C111.913 11 112.13 10.865 112.271 10.695C112.422 10.515 112.498 10.3 112.498 10.05C112.498 9.79 112.407 9.57 112.226 9.39C112.054 9.2 111.731 9.055 111.257 8.955L109.228 8.505C108.643 8.365 108.139 8.185 107.715 7.965C107.301 7.735 106.983 7.445 106.761 7.095C106.549 6.735 106.443 6.31 106.443 5.82C106.443 5.23 106.605 4.7 106.928 4.23C107.25 3.76 107.715 3.39 108.32 3.12C108.936 2.84 109.672 2.7 110.53 2.7Z" fill="white"/>
<path d="M129.975 2.85V4.515H126.629V12.75H124.54V4.515H121.18V2.85H129.975Z" fill="white"/>
</svg>
